name rise44.8762peak52.3436fall86.788.mot
datacolumns 19
datarows 11
range 16.34327300000000 16.35993600000000
endheader
time	ground_force1_vx	ground_force1_vy	ground_force1_vz	ground_force1_px	ground_force1_py	ground_force1_pz	ground_force2_vx	ground_force2_vy	ground_force2_vz	ground_force2_px	ground_force2_py	ground_force2_pz	ground_torque1_x	ground_torque1_y	ground_torque1_z	ground_torque2_x	ground_torque2_y	ground_torque2_z	
16.34327300000000	-53.24543100000000	817.16980100000001	65.95689200000000	0.03831600000000	0.00000000000000	0.12747000000000	-11.05684200000000	45.69569000000000	10.72944000000000	0.31310500000000	0.00000000000000	-0.06138400000000	0.00000000000000	17.01950000000000	0.00000000000000	0.00000000000000	5.58127900000000	0.00000000000000	
16.34493200000000	-53.33113100000000	814.98784699999999	65.78858400000000	0.03789800000000	0.00000000000000	0.12743100000000	-11.99206900000000	52.19073800000000	11.89016900000000	0.31522800000000	0.00000000000000	-0.06203400000000	0.00000000000000	16.93029100000000	0.00000000000000	0.00000000000000	6.24468100000000	0.00000000000000	
16.34660200000000	-53.42830800000000	812.66933900000004	65.59499400000000	0.03748400000000	0.00000000000000	0.12739000000000	-12.74879600000000	58.60884300000000	12.93740100000000	0.31716600000000	0.00000000000000	-0.06264600000000	0.00000000000000	16.84407900000000	0.00000000000000	0.00000000000000	6.86052000000000	0.00000000000000	
16.34827300000000	-53.53733500000000	810.21342000000004	65.37579900000000	0.03707500000000	0.00000000000000	0.12734800000000	-13.31133200000000	64.88433999999999	13.85425800000000	0.31894600000000	0.00000000000000	-0.06322300000000	0.00000000000000	16.76103800000000	0.00000000000000	0.00000000000000	7.41913900000000	0.00000000000000	
16.34993600000000	-53.65853600000000	807.61929199999997	65.13071100000001	0.03667000000000	0.00000000000000	0.12730300000000	-13.67405500000000	70.97683600000001	14.63193800000000	0.32058800000000	0.00000000000000	-0.06377000000000	0.00000000000000	16.68133000000000	0.00000000000000	0.00000000000000	7.91487300000000	0.00000000000000	
16.35160200000000	-53.79218200000000	804.88622199999998	64.85947800000000	0.03627000000000	0.00000000000000	0.12725500000000	-13.84052200000000	76.87062700000000	15.26920800000000	0.32211200000000	0.00000000000000	-0.06429100000000	0.00000000000000	16.60510700000000	0.00000000000000	0.00000000000000	8.34587100000000	0.00000000000000	
16.35327000000000	-53.93849300000000	802.01354000000003	64.56188400000001	0.03587500000000	0.00000000000000	0.12720600000000	-13.82197200000000	82.57217400000000	15.77134800000000	0.32353300000000	0.00000000000000	-0.06478900000000	0.00000000000000	16.53250300000000	0.00000000000000	0.00000000000000	8.71362600000000	0.00000000000000	
16.35493900000000	-54.09763100000000	799.00063599999999	64.23775200000000	0.03548400000000	0.00000000000000	0.12715400000000	-13.63545300000000	88.10619500000000	16.14874900000000	0.32486400000000	0.00000000000000	-0.06526600000000	0.00000000000000	16.46364100000000	0.00000000000000	0.00000000000000	9.02231600000000	0.00000000000000	
16.35660500000000	-54.26970200000000	795.84696299999996	63.88694400000000	0.03509900000000	0.00000000000000	0.12709900000000	-13.30179300000000	93.51092900000000	16.41533900000000	0.32611400000000	0.00000000000000	-0.06572500000000	0.00000000000000	16.39862900000000	0.00000000000000	0.00000000000000	9.27804000000000	0.00000000000000	
16.35826700000000	-54.45475700000000	792.55203600000004	63.50936100000000	0.03471800000000	0.00000000000000	0.12704200000000	-12.84360700000000	98.83311000000000	16.58697900000000	0.32729500000000	0.00000000000000	-0.06616700000000	0.00000000000000	16.33755800000000	0.00000000000000	0.00000000000000	9.48802900000000	0.00000000000000	
16.35993600000000	-54.65278300000000	789.11543099999994	63.10494700000000	0.03434200000000	0.00000000000000	0.12698300000000	-12.28350200000000	104.12311400000000	16.67999600000000	0.32841200000000	0.00000000000000	-0.06659500000000	0.00000000000000	16.28050500000000	0.00000000000000	0.00000000000000	9.65990300000000	0.00000000000000	
